<svg xmlns="http://www.w3.org/2000/svg" width="182.98mm" height="45.04mm" viewBox="0 0 518.67 127.68">
  <defs>
    <style>
      .a {
        fill: #f37021;
      }

      .b {
        fill: #231f20;
      }
    </style>
  </defs>
  <title>logo</title>
  <path d="M179.69,235.92v16.71h-2.28a19.09,19.09,0,0,0-5.75-10.31,14.64,14.64,0,0,0-10.12-3.79A14.11,14.11,0,0,0,150.06,244q-4.44,5.49-4.44,14.23A27.2,27.2,0,0,0,150.87,275q5.25,7.05,12.5,7a19.64,19.64,0,0,0,9.57-2.6,25.23,25.23,0,0,0,8.13-7.25v3.46q-7.71,10.44-20.9,10.44-10.5,0-17.13-6.65t-6.63-17.3a26.12,26.12,0,0,1,7.15-18.54,22.77,22.77,0,0,1,17.27-7.64,32.42,32.42,0,0,1,10,1.83,13.27,13.27,0,0,0,3.33.78c1.35,0,2.42-.87,3.2-2.61Z" transform="translate(-136.41 -194.67)"/>
  <path d="M221.19,274.68V251.27a10.64,10.64,0,0,0-2.61-7.51,9,9,0,0,0-6.93-2.82,12.83,12.83,0,0,0-7.14,2.06,26.37,26.37,0,0,0-6.63,6.95v26c0,2.45.57,4.12,1.7,5s3.2,1.37,6.2,1.37v2.22h-25.4v-2.22c3.62-.08,5.92-.67,6.93-1.76s1.5-3.53,1.5-7.32V211.57c0-2.87-.52-4.78-1.54-5.71s-3.32-1.41-6.89-1.41v-2.22l15.28-1.63h2.22v44.78a34.91,34.91,0,0,1,8.26-7.34,16.42,16.42,0,0,1,8.32-2.12,15.39,15.39,0,0,1,11.36,4.44c3,3,4.44,6.95,4.44,12v20.92q0,5.55,1.5,7.32c1,1.18,3.05,1.76,6.14,1.76v2.22H213.29v-2.22q4.83,0,6.36-1.5c1-1,1.54-3.05,1.54-6.15" transform="translate(-136.41 -194.67)"/>
  <path d="M253.34,286.05a13.54,13.54,0,0,1-9.53-3.69,11.69,11.69,0,0,1-4-8.9,10.78,10.78,0,0,1,3.43-8.2q3.42-3.22,13.94-6.17a44.27,44.27,0,0,0,8.87-3.13v-3.53a11.89,11.89,0,0,0-2.87-8.32,9.9,9.9,0,0,0-7.7-3.17,12,12,0,0,0-7.77,2.75,14.48,14.48,0,0,0-4.77,7.44l-2.41-.65a18.33,18.33,0,0,1,6.23-10.58,17.11,17.11,0,0,1,11.26-4q7.65,0,12.37,4.6t4.74,12.76v20.31a20.2,20.2,0,0,0,.55,5.84,2.1,2.1,0,0,0,2.12,1.53,2.14,2.14,0,0,0,1.77-.88,11.48,11.48,0,0,0,1.5-3.69h2.22a11.17,11.17,0,0,1-2.78,7.05,8.39,8.39,0,0,1-6.43,2.61q-5.81,0-8-6.72a25,25,0,0,1-6.26,5.29,13.75,13.75,0,0,1-6.47,1.43M266.07,275V258.9c-1.35.56-3.3,1.28-5.87,2.15q-7.12,2.42-9.11,4.8a9.7,9.7,0,0,0-2,6.43,9.32,9.32,0,0,0,2.12,6.1,6.37,6.37,0,0,0,5.06,2.58,11,11,0,0,0,5.62-1.73,10.21,10.21,0,0,0,4.17-4.27" transform="translate(-136.41 -194.67)"/>
  <path d="M301.13,235.92v9.86h.27a22.16,22.16,0,0,1,7.54-7.19,18.31,18.31,0,0,1,9.3-2.67,15.35,15.35,0,0,1,14.88,10.64q7.58-10.65,17.5-10.64a16.17,16.17,0,0,1,11.49,4.27c3,2.84,4.57,6.75,4.57,11.7v23.79q0,3.85,1.68,5.19c1.12.89,3.2,1.33,6.22,1.33v2.35H349.51V282.2c3.44,0,5.63-.55,6.59-1.66s1.44-3.58,1.44-7.4V250.72a9.46,9.46,0,0,0-2.74-7.17,10.45,10.45,0,0,0-7.51-2.61q-7.44,0-13.38,9.14v25.35q0,4,1.69,5.37c1.13.94,3.2,1.4,6.2,1.4v2.35H316.93V282.2q5.35,0,6.63-1.69t1.27-7.37v-21.9a10.08,10.08,0,0,0-2.81-7.49,9.8,9.8,0,0,0-7.24-2.81,13.33,13.33,0,0,0-7.54,2.49,19.91,19.91,0,0,0-6.11,6.65v25.74c0,2.43.59,4.13,1.77,5.08s3.26,1.43,6.26,1.43v2.22H284V282.2q5.22,0,6.63-1.63t1.4-6V246.49c0-2.43-.51-4.2-1.53-5.29s-2.71-1.63-5.06-1.63h-2.94v-2.22l16.32-1.43Z" transform="translate(-136.41 -194.67)"/>
  <path d="M388.44,235.92v8a33.54,33.54,0,0,1,8.21-6.17,18.76,18.76,0,0,1,8.27-1.79,19.38,19.38,0,0,1,15.3,7q6.09,7,6.08,17.65,0,11-6.7,18.22a22,22,0,0,1-16.84,7.24q-7,0-14.32-5.61v31.14q0,4.83,1.66,6.36t6.24,1.54v2.22H371v-2.22q4.89,0,6.59-1.37t1.7-5.23V247q0-4.77-1.44-6.08c-.95-.87-3.24-1.31-6.85-1.31v-2.22l15.14-1.43Zm0,11.49V277a17.45,17.45,0,0,0,13.09,5.88q6.35,0,10.63-5.94t4.29-14.75q0-9.54-4.29-15.74t-10.89-6.2q-6.67,0-12.83,7.12" transform="translate(-136.41 -194.67)"/>
  <path d="M504.37,261.05A23.8,23.8,0,0,1,497,278.91q-7.41,7.14-18.51,7.14T460,278.91a25.42,25.42,0,0,1,0-35.84q7.38-7.15,18.54-7.15T497,243.07a24,24,0,0,1,7.38,18m-9.86,0q0-10.12-4.3-16.34a14.32,14.32,0,0,0-23.51-.13q-4.31,6.07-4.31,16.47,0,10.21,4.28,16.28a14.42,14.42,0,0,0,23.57-.06q4.27-6.15,4.27-16.22" transform="translate(-136.41 -194.67)"/>
  <path d="M520.49,235.92v9.46q8.29-9.47,17.1-9.46A15.36,15.36,0,0,1,549,240.59q4.56,4.68,4.57,12.33v21.37q0,4.9,1.63,6.47t6.4,1.57v2.22H536.35v-2.22q4.71,0,6.43-1.21c1.16-.8,1.73-2.36,1.73-4.67V251.67a10.62,10.62,0,0,0-3-7.91,10.31,10.31,0,0,0-7.6-2.95q-6.66,0-13.45,9.27v23.16q0,5.88,1.52,7.49t6.38,1.6v2.22H503.45v-2.22q5.42,0,6.66-1.73c.83-1.16,1.24-3.61,1.24-7.37V246.52q0-4.26-1.5-5.6c-1-.9-3.14-1.35-6.4-1.35v-2.22l14.76-1.43Z" transform="translate(-136.41 -194.67)"/>
  <path d="M593.09,235.92v14.56h-2.68a14.13,14.13,0,0,0-3.92-8.72,10.81,10.81,0,0,0-7.9-3.23,8.7,8.7,0,0,0-5.67,1.76,5.76,5.76,0,0,0-2.16,4.7,7.32,7.32,0,0,0,2,5.06q2,2.19,8.65,5.26,8.63,3.92,11.4,7.5a13.69,13.69,0,0,1,2.77,8.62,13.89,13.89,0,0,1-4.44,10.28,14.5,14.5,0,0,1-10.51,4.34q-3.14,0-8.29-2.28a12.24,12.24,0,0,0-3.72-1.24,2.72,2.72,0,0,0-2.09.91,3.77,3.77,0,0,0-1,2.29h-2.29V269.6h2.29A17.44,17.44,0,0,0,571,279.7a14.26,14.26,0,0,0,9.73,3.74,8.08,8.08,0,0,0,5.91-2.35,7.85,7.85,0,0,0,2.38-5.82,8.39,8.39,0,0,0-2.2-5.79q-2.19-2.44-9.5-5.66-8.22-3.6-10.83-6.74a11.48,11.48,0,0,1-2.6-7.57,12.68,12.68,0,0,1,4.27-9.57,14.33,14.33,0,0,1,10.15-4,15.78,15.78,0,0,1,5.94,1.3,10.68,10.68,0,0,0,3.73.92c1.26,0,2.19-.74,2.81-2.22Z" transform="translate(-136.41 -194.67)"/>
  <path class="a" d="M418.68,203a23.08,23.08,0,0,1,2.23-8.34c-2.14,14.23,11,14,19.59,17,6.72,2.32,11.08,4.82,13.12,11.38,0,0,0,0,0,.06h0a15.59,15.59,0,0,1-.33,10c0-8-7.69-11.37-15.37-13.75-.3-.11-.6-.19-.91-.28-4.34-1.3-8.57-2.32-11.26-3.7a15.7,15.7,0,0,1-2.42-1.54A12.2,12.2,0,0,1,418.68,203" transform="translate(-136.41 -194.67)"/>
  <path class="a" d="M420.72,215.89a11.07,11.07,0,0,0,1.74,1.66,15.31,15.31,0,0,0,2.35,1.51c2.62,1.33,6.72,2.32,10.94,3.59.3.09.59.16.89.27,6.89,2.14,13.82,5.13,14.8,11.67a13.88,13.88,0,0,1-.83,5.63c0-6.87-6.64-9.82-13.27-11.87a7.36,7.36,0,0,0-.8-.24c-3.74-1.13-7.39-2-9.72-3.2a12.41,12.41,0,0,1-2.08-1.34,10.09,10.09,0,0,1-1.63-1.55,10.26,10.26,0,0,1-2.39-6.13" transform="translate(-136.41 -194.67)"/>
  <path class="a" d="M448.62,240.89c-.46-3-2.58-5-5.34-6.5a33.76,33.76,0,0,0-5.86-2.33c-.22-.08-.44-.13-.67-.2l-.86-.25-1.68-.49a34.55,34.55,0,0,1-5.73-2,11.21,11.21,0,0,1-1.77-1.13,9.46,9.46,0,0,1-1.33-1.26,8.57,8.57,0,0,0,1.81,4.88,8.36,8.36,0,0,0,.58.62c.2.19.42.38.65.56a9.74,9.74,0,0,0,1.58,1,24.92,24.92,0,0,0,4.21,1.5c1,.3,2.06.59,3.14.92.21.06.41.11.6.18l.87.28.31.11.55.2.38.15.46.19.42.18.39.17.46.21.28.14c.42.21.82.43,1.21.66s.88.55,1.29.84l.05,0,.55.43.05,0,.53.47h0a7.34,7.34,0,0,1,1.91,2.79,5.52,5.52,0,0,1,.33,1.81,10.65,10.65,0,0,0,.63-4.25" transform="translate(-136.41 -194.67)"/>
  <path class="a" d="M445.23,281q-1.69-1.31-1.7-5.22V242.66a10.3,10.3,0,0,0-1.16-.72,24.16,24.16,0,0,0-4.24-1.68c-.16-.06-.32-.1-.49-.15l-.62-.18-1.21-.35-1.35-.4a19.07,19.07,0,0,1-2.8-1,8.43,8.43,0,0,1-1.29-.83,7,7,0,0,1-1-.91,6.18,6.18,0,0,0,1.32,3.54,3.45,3.45,0,0,0,.42.44,4.76,4.76,0,0,0,.47.41,7,7,0,0,0,1.14.73,12.3,12.3,0,0,0,1.7.67v33.58q0,4-1.63,5.26c-1.08.86-3.52,1.28-7.3,1.28v2.22h25.89v-2.22c-3,0-5.06-.43-6.19-1.31" transform="translate(-136.41 -194.67)"/>
  <path class="b" d="M613.46,282.35a10.25,10.25,0,0,1-6.36,2,13.55,13.55,0,0,1-2.26-.2,9,9,0,0,1-2.05-.58,13.43,13.43,0,0,1-2.18-1.24l-.19-.12v1.06l.05,0a13.65,13.65,0,0,0,3.4,2.13,8.73,8.73,0,0,0,6.36,0,9.38,9.38,0,0,0,1.58-.76,17.89,17.89,0,0,0,1.55-1.16l.3-.25V282.2Z" transform="translate(-136.41 -194.67)"/>
  <path class="b" d="M602.08,275.75h5.59a5.09,5.09,0,0,1,1.56.17,1.86,1.86,0,0,1,.76.55,2.91,2.91,0,0,1,.62,1.92,3.29,3.29,0,0,1-.31,1.45,2.13,2.13,0,0,1-.81.89,4,4,0,0,1-1.82.29h-5.59v1.63h5.57a6.78,6.78,0,0,0,1.75-.16,3.62,3.62,0,0,0,1-.4,3.13,3.13,0,0,0,.7-.61,4.61,4.61,0,0,0,1-3.1,4.56,4.56,0,0,0-1-3.07,3.1,3.1,0,0,0-.7-.61,3.9,3.9,0,0,0-1-.41,6.57,6.57,0,0,0-1.7-.17h-5.59Z" transform="translate(-136.41 -194.67)"/>
  <polygon class="b" points="470.35 75.45 465.67 71.16 465.67 73.22 469.88 77.09 465.67 77.09 465.67 78.72 475.54 78.72 475.54 77.09 470.95 77.09 475.54 72.34 475.54 70.11 470.35 75.45"/>
  <path class="b" d="M603.84,262.4a8.8,8.8,0,0,0-1.59.76,13.7,13.7,0,0,0-1.53,1.16l-.3.25v1.07l.2-.15a9.72,9.72,0,0,1,4.09-1.79,12.45,12.45,0,0,1,2.3-.21,13.63,13.63,0,0,1,2.14.18,10.54,10.54,0,0,1,2.05.56,13.59,13.59,0,0,1,2.27,1.27l.19.12v-1.06l0,0a19.13,19.13,0,0,0-2.08-1.5,9.53,9.53,0,0,0-1.45-.69,8.7,8.7,0,0,0-3-.55A8.83,8.83,0,0,0,603.84,262.4Z" transform="translate(-136.41 -194.67)"/>
  <path class="b" d="M616.74,257.62H602.2v-3.34a5.73,5.73,0,0,1,1.28-4,4.55,4.55,0,0,1,3.57-1.43,4.91,4.91,0,0,1,3.56,1.35,4.56,4.56,0,0,1,1.39,3.42,6.1,6.1,0,0,1-.41,2h5.15ZM604,254.32v1.35h5.92a4,4,0,0,0,.45-1.84,2.84,2.84,0,0,0-.93-2.19,3.4,3.4,0,0,0-2.4-.85,3.34,3.34,0,0,0-1.66.4,2.47,2.47,0,0,0-1.05,1.1,4.88,4.88,0,0,0-.33,2" transform="translate(-136.41 -194.67)"/>
  <rect class="b" x="460.79" y="50.69" width="14.62" height="1.91"/>
  <path class="b" d="M609.58,235.92h1.88a7.89,7.89,0,0,1,.54,2.8,4.91,4.91,0,0,1-1.34,3.61,4.84,4.84,0,0,1-3.59,1.35,5.15,5.15,0,0,1-3.67-1.31,4.5,4.5,0,0,1-1.39-3.45,6,6,0,0,1,.14-1.33,8.38,8.38,0,0,1,.53-1.46h2a5.1,5.1,0,0,0-.92,2.68,2.73,2.73,0,0,0,.9,2.11,3.32,3.32,0,0,0,2.31.83,3.14,3.14,0,0,0,2.35-.89,3.32,3.32,0,0,0,.87-2.42,6.4,6.4,0,0,0-.64-2.52" transform="translate(-136.41 -194.67)"/>
  <g>
    <path class="a" d="M320.07,299.09h-5.79v-4.46h16.63v4.46h-5.8V321.7h-5Z" transform="translate(-136.41 -194.67)"/>
    <path class="a" d="M332.23,294.63h5v10.62h6.91V294.63h5V321.7h-5V309.42h-6.91V321.7h-5Z" transform="translate(-136.41 -194.67)"/>
    <path class="a" d="M351.83,294.63h13.89v4.5h-8.89v6.26h8.28v4.28h-8.28v7.46h9.11v4.57H351.83Z" transform="translate(-136.41 -194.67)"/>
  </g>
  <path class="a" d="M404,312.19v1.73c0,2.92.47,4.32,2.77,4.32s3.28-1.11,3.28-3.2-1-2.85-3.1-4.32l-2.59-1.84c-3.46-2.41-5.15-3.81-5.15-7.63,0-4.53,2.88-7.27,7.6-7.27,5,0,7.77,2.81,7.77,8,0,.32,0,.64,0,1H409.8v-.72c0-2.88-.87-4.11-3.1-4.11a2.43,2.43,0,0,0-2.59,2.7c0,1.73,1.22,2.52,3.17,3.82l2.77,1.87c3.56,2.38,5.08,4.21,5.08,8.17,0,4.9-2.88,7.7-8.14,7.7-5.43,0-8.06-2.77-8.06-8.53,0-.5,0-1,.07-1.62Z" transform="translate(-136.41 -194.67)"/>
  <path class="a" d="M417.14,294.63h8.75c5.29,0,7.52,2.16,7.52,7.67s-2.48,7.91-7.59,7.91h-3.67V321.7h-5Zm7,11.84c3.06,0,4.24-1,4.24-4.07,0-3.24-1.18-4-4.17-4H422v8.06Z" transform="translate(-136.41 -194.67)"/>
  <path class="a" d="M435.07,294.63H449v4.5h-8.89v6.26h8.28v4.28h-8.28v7.46h9.11v4.57H435.07Z" transform="translate(-136.41 -194.67)"/>
  <path class="a" d="M455.64,294.63h6.76l6.16,27.07h-5.44l-1.33-6.81H456l-1.29,6.81h-5.15Zm5.43,16.2-2.16-11.34-2.12,11.34Z" transform="translate(-136.41 -194.67)"/>
  <path class="a" d="M469.5,294.63h4.93v11.3l6.16-11.3h5.61l-6.84,11.23,7.27,15.84h-5.54l-4.86-11.2-1.8,3v8.21H469.5Z" transform="translate(-136.41 -194.67)"/>
  <path class="a" d="M487.63,294.63h13.89v4.5h-8.89v6.26h8.28v4.28h-8.28v7.46h9.11v4.57H487.63Z" transform="translate(-136.41 -194.67)"/>
  <path class="a" d="M503.18,294.63h9c5.44,0,7.7,2.05,7.7,7.09,0,3.53-1.33,5.58-3.81,5.94,3.71,1,3.63,2.91,3.74,6.41l.15,3.6a5.56,5.56,0,0,0,1.36,4h-6a15.77,15.77,0,0,1-.47-4.21l-.07-2.85v-.72c0-3.53-1.48-4.1-5.08-4.1H508V321.7h-4.85ZM511,306.08c2.92,0,3.89-1,3.89-4s-1.26-3.63-4.32-3.63H508v7.67Z" transform="translate(-136.41 -194.67)"/>
  <path class="a" d="M526.29,312.19v1.73c0,2.92.47,4.32,2.77,4.32s3.28-1.11,3.28-3.2-1-2.85-3.1-4.32l-2.59-1.84c-3.46-2.41-5.15-3.81-5.15-7.63,0-4.53,2.88-7.27,7.6-7.27,5,0,7.77,2.81,7.77,8,0,.32,0,.64,0,1h-4.79v-.72c0-2.88-.86-4.11-3.1-4.11a2.43,2.43,0,0,0-2.59,2.7c0,1.73,1.23,2.52,3.17,3.82l2.77,1.87c3.57,2.38,5.08,4.21,5.08,8.17,0,4.9-2.88,7.7-8.14,7.7-5.43,0-8.06-2.77-8.06-8.53,0-.5,0-1,.07-1.62Z" transform="translate(-136.41 -194.67)"/>
  <path class="a" d="M553.46,294.63h6.77l6.15,27.07H561l-1.33-6.81h-5.8l-1.29,6.81h-5.15Zm5.44,16.2-2.16-11.34-2.13,11.34Z" transform="translate(-136.41 -194.67)"/>
  <path class="a" d="M579.75,318.71c-1,2.63-2.74,3.63-5.83,3.63-6.23,0-7.71-4.67-7.71-15,0-4.93.44-8.27,1.7-10.15C569.35,295,571.65,294,575,294c5.8,0,8.5,2.66,8.5,8.46v.68h-4.72v-.29c0-3.24-1.22-4.89-3.6-4.89-3.78,0-3.81,3.24-3.81,10.61,0,6.74.54,9.62,3.56,9.62,2.77,0,3.71-1.84,3.71-6v-.93h-3.49v-4.32h8.35V321.7h-3.42Z" transform="translate(-136.41 -194.67)"/>
  <path class="a" d="M585.77,294.63h13.9v4.5h-8.89v6.26h8.28v4.28h-8.28v7.46h9.1v4.57H585.77Z" transform="translate(-136.41 -194.67)"/>
  <path class="a" d="M601.71,294.63h5.18L614,313.56l-.15-18.93h4.76V321.7h-5.15l-7.09-19,.14,19h-4.75Z" transform="translate(-136.41 -194.67)"/>
  <path class="a" d="M636.58,312.05c0,.36,0,.68,0,1,0,6.27-2.6,9.25-8,9.25-2.52,0-4.36-.61-5.72-2-2.31-2.37-2.49-6.26-2.49-12.45,0-5.18.36-8.6,1.37-10.33,1.48-2.52,3.56-3.53,6.84-3.53,5.51,0,7.85,2.74,7.88,9h-4.89v-.65c0-2.92-.94-4.36-2.88-4.36-3.13,0-3.13,2.85-3.13,9.76,0,7.56,0,10.47,3.09,10.47,2.41,0,3-1.69,3-5.83v-.36Z" transform="translate(-136.41 -194.67)"/>
  <path class="a" d="M643,310.21l-7.09-15.58h5.58l4.1,10.19,4-10.19h5.43l-7,15.58V321.7H643Z" transform="translate(-136.41 -194.67)"/>
</svg>
